<?xml version="1.0" encoding="UTF-8" standalone="no"?>
<!-- Created with Inkscape (http://www.inkscape.org/) -->

<svg
     width="50mm"
     height="50mm"
     viewBox="0 0 50 50"
     version="1.1"
     id="svg5"
     sodipodi:docname="breath.svg"
     inkscape:version="1.1.2 (b8e25be833, 2022-02-05)"
     xmlns:inkscape="http://www.inkscape.org/namespaces/inkscape"
     xmlns:sodipodi="http://sodipodi.sourceforge.net/DTD/sodipodi-0.dtd"
     xmlns="http://www.w3.org/2000/svg"
     xmlns:svg="http://www.w3.org/2000/svg">
    <sodipodi:namedview
         id="namedview7"
         pagecolor="#ffffff"
         bordercolor="#111111"
         borderopacity="1"
         inkscape:pageshadow="0"
         inkscape:pageopacity="0"
         inkscape:pagecheckerboard="1"
         inkscape:document-units="mm"
         showgrid="false"
         inkscape:zoom="2.9718855"
         inkscape:cx="98.085878"
         inkscape:cy="97.076418"
         inkscape:window-width="1920"
         inkscape:window-height="1001"
         inkscape:window-x="-9"
         inkscape:window-y="-9"
         inkscape:window-maximized="1"
         inkscape:current-layer="layer1" />
    <defs
         id="defs2" />
    <g
         inkscape:label="Layer 1"
         inkscape:groupmode="layer"
         id="layer1">
        <path
             style="fill:none;stroke-width:0.600945"
             id="path384"
             sodipodi:type="arc"
             sodipodi:cx="25"
             sodipodi:cy="25"
             sodipodi:rx="14.710432"
             sodipodi:ry="14.710432"
             sodipodi:start="0"
             sodipodi:end="6.2732788"
             sodipodi:arc-type="slice"
             d="m 39.710432,25 a 14.710432,14.710432 0 0 1 -14.674,14.710387 a 14.710432,14.710432 0 0 1 -14.746684,-14.637523 a 14.710432,14.710432 0 0 1 14.600956,-14.78289 a 14.710432,14.710432 0 0 1 14.819006,14.564299 l -14.70971,0.145727 z" />
        <path
             id="Breath"
             fill="#10dfff"
             d="m 33.658326,40.848497 h 7.67292 c 0,0 0.50271,-3.06917 0.37042,-6.48229 c -0.0794,-2.40771 -0.50271,-5.00063 -1.5875,-6.82625 c -0.82021,-1.37584 -2.11667,-3.4925 -6.77334,-3.43959 c 0,0 -3.6777,-0.50271 -8.59895,4.78896 c 0,0 -7.67292,8.96938 -16.1395869,5.87375 c 0,0 -5.6091668,-1.905 -8.59895776,-4.89479 c 0,0 5.23874896,9.15458 14.15520466,9.31333 c 2.32834,0.0529 5.74146,0.15875 10.16,-3.4925 c 2.27542,-1.87854 6.37646,-5.52979 8.44021,-5.84729 c 0,0 4.49792,-0.66146 2.69875,4.04813 c 0.0265,-0.0265 -1.905,4.02166 -1.79917,6.95854 z m 12.96459,-0.23813 c 0,0 2.24896,-5.50333 3.06916,-11.56229 c 0.37042,-2.64583 0.4498,-5.37104 -0.0264,-7.80521 c 0,0 -0.34396,-1.71979 -1.42875,-3.86291 c -0.635,-1.21709 -1.50813,-2.56646 -2.69875,-3.83646 c -2.51355,-2.64584 -6.4823,-4.8418797 -12.62063,-4.3127097 c -1.45521,0.13229 -5.23875,-0.29104 -11.82687,6.4822897 c -2.51355,2.59292 -4.33917,6.69396 -9.445629,7.19667 c -2.0108329,0.21166 -7.0379157,0.37041 -6.7997917,-4.78896 c 0.105834,-2.72521 5.4768747,-7.72583 8.4931207,-1.45521 c 0,0 0.82021,-7.3289597 -7.0379117,-4.92125 c 0,0 -6.05895796,1.82563 -6.03249996,9.10167 c 0,0.66146 0.661458,9.81604 14.73729166,8.86354 c 0,0 3.04271,-0.23813 5.92667,-2.11667 c 1.98437,-1.29646 4.78895,-3.91583 7.56708,-6.69396 c 0.26458,-0.26458 8.20208,-7.85812 14.605,0.82021 c -0.0265,0.0265 5.13292,6.42938 3.51896,18.89125 z"
             style="stroke-width:0.264583" />
    </g>
</svg>
