<?xml version="1.0" encoding="UTF-8" standalone="no"?>
<!-- Created with Inkscape (http://www.inkscape.org/) -->

<svg
     width="50mm"
     height="50mm"
     viewBox="0 0 50 50"
     version="1.1"
     id="svg5"
     sodipodi:docname="doom.svg"
     inkscape:version="1.1.2 (b8e25be833, 2022-02-05)"
     xmlns:inkscape="http://www.inkscape.org/namespaces/inkscape"
     xmlns:sodipodi="http://sodipodi.sourceforge.net/DTD/sodipodi-0.dtd"
     xmlns="http://www.w3.org/2000/svg"
     xmlns:svg="http://www.w3.org/2000/svg">
    <sodipodi:namedview
         id="namedview7"
         pagecolor="#ffffff"
         bordercolor="#111111"
         borderopacity="1"
         inkscape:pageshadow="0"
         inkscape:pageopacity="0"
         inkscape:pagecheckerboard="1"
         inkscape:document-units="mm"
         showgrid="false"
         inkscape:zoom="2.9718855"
         inkscape:cx="98.085878"
         inkscape:cy="97.076418"
         inkscape:window-width="1920"
         inkscape:window-height="1001"
         inkscape:window-x="-9"
         inkscape:window-y="-9"
         inkscape:window-maximized="1"
         inkscape:current-layer="layer1" />
    <defs
         id="defs2" />
    <g
         inkscape:label="Layer 1"
         inkscape:groupmode="layer"
         id="layer1">
        <path
             style="fill:none;stroke-width:0.600945"
             id="path384"
             sodipodi:type="arc"
             sodipodi:cx="25"
             sodipodi:cy="25"
             sodipodi:rx="14.710432"
             sodipodi:ry="14.710432"
             sodipodi:start="0"
             sodipodi:end="6.2732788"
             sodipodi:arc-type="slice"
             d="m 39.710432,25 a 14.710432,14.710432 0 0 1 -14.674,14.710387 a 14.710432,14.710432 0 0 1 -14.746684,-14.637523 a 14.710432,14.710432 0 0 1 14.600956,-14.78289 a 14.710432,14.710432 0 0 1 14.819006,14.564299 l -14.70971,0.145727 z" />
        <path
             id="Doom"
             fill="#000000"
             d="m 40.83531,38.08366 c 2.59292,-3.14854 4.259799,-7.09083 4.630209,-11.40354 c 0.71438,-0.47625 2.54,-1.5875 3.96875,-1.69333 c 0,0 -2.54,-0.68792 -3.99521,-1.98438 c -0.42333,-4.28625 -2.143119,-8.17562 -4.762499,-11.2977 c 0.15875,-0.82021 0.66146,-2.9104201 1.61396,-4.0216701 c 0,0 -2.30187,1.29646 -4.23333,1.42875 c -3.14854,-2.59292 -7.06438,-4.25979 -11.35063,-4.60375 c -0.47625,-0.71438 -1.5875,-2.54 -1.69333,-3.96875 c 0,0 -0.68792,2.51354 -1.984371,3.99521 c -4.312713,0.39687 -8.228546,2.14312 -11.324171,4.7625 c -0.846667,-0.18521 -2.8839575,-0.68792 -3.9687495,-1.5875 c 0,0 1.27,2.24896 1.42875,4.1804101 c -2.619375,3.14855 -4.312708,7.1173 -4.683125,11.45646 c -0.740833,0.50271 -2.513542,1.53459 -3.915833,1.66688 c 0,0 2.460625,0.66146 3.915833,1.93146 c 0.396875,4.33916 2.143125,8.30791 4.815417,11.45645 c -0.185209,0.87313 -0.687917,2.8575 -1.5875,3.91584 c 0,0 2.3547905,-1.77271 4.3920825,-1.21709 l -0.02646,-0.0265 c 0,-0.0529 0,-0.10583 0,-0.1852 c -0.02646,-0.4498 -4.6831245,-6.90563 2.778125,-5.95313 c 2.169583,0.29104 5.979583,1.13771 6.138333,6.27063 c 0.02646,0.89958 -0.185208,3.06916 -1.455208,3.3602 c 0,0 -0.264584,0.0794 -0.687917,0.1323 c 1.42875,0.44979 2.936873,0.74083 4.497923,0.87312 c 0.5027,0.74083 1.534581,2.51354 1.666871,3.88938 c 0,0 0.66146,-2.46063 1.93146,-3.9423 c 1.45521,-0.13229 2.83104,-0.42333 4.18042,-0.84666 c -0.39688,-0.0794 -0.66146,-0.13229 -0.66146,-0.13229 c -1.27,-0.29105 -1.48167,-2.43417 -1.45521,-3.36021 c 0.18521,-5.10646 3.96875,-5.97959 6.13833,-6.27063 c 7.46125,-0.9525 2.77813,5.47688 2.77813,5.95313 c 0,0.0529 0,0.0794 0,0.13229 l -0.0265,0.0265 c 0,0 0,0 0.0265,0 c 0,0 0,0 0,0 c 0,0 0,0 0,0 c 0.29104,0 3.04271,0.13229 4.36562,1.27 c -0.0529,-0.0265 -1.32291,-2.27542 -1.45521,-4.20688 z m -25.796872,-4.7625 c -4.841875,0 -8.7312495,-3.91583 -8.7312495,-8.73125 c 0,-4.81541 3.9158325,-8.73125 8.7312495,-8.73125 c 4.815417,0 8.731251,3.91584 8.731251,8.73125 c 0,4.81542 -3.915834,8.73125 -8.731251,8.73125 z m 19.817292,0.0265 c -4.84187,0 -8.73125,-3.91583 -8.73125,-8.73125 c 0,-4.84187 3.91583,-8.73125 8.73125,-8.73125 c 4.81542,0 8.73125,3.91584 8.73125,8.73125 c 0.0265,4.81542 -3.88937,8.73125 -8.73125,8.73125 z"
             style="stroke-width:0.264583" />
    </g>
</svg>
