<?xml version="1.0" encoding="UTF-8" standalone="no"?>
<!-- Created with Inkscape (http://www.inkscape.org/) -->

<svg
     width="50mm"
     height="50mm"
     viewBox="0 0 50 50"
     version="1.1"
     id="svg5"
     sodipodi:docname="heart.svg"
     inkscape:version="1.1.2 (b8e25be833, 2022-02-05)"
     xmlns:inkscape="http://www.inkscape.org/namespaces/inkscape"
     xmlns:sodipodi="http://sodipodi.sourceforge.net/DTD/sodipodi-0.dtd"
     xmlns="http://www.w3.org/2000/svg"
     xmlns:svg="http://www.w3.org/2000/svg">
    <sodipodi:namedview
         id="namedview7"
         pagecolor="#ffffff"
         bordercolor="#111111"
         borderopacity="1"
         inkscape:pageshadow="0"
         inkscape:pageopacity="0"
         inkscape:pagecheckerboard="1"
         inkscape:document-units="mm"
         showgrid="false"
         inkscape:zoom="2.9718855"
         inkscape:cx="98.085878"
         inkscape:cy="97.076418"
         inkscape:window-width="1920"
         inkscape:window-height="1001"
         inkscape:window-x="-9"
         inkscape:window-y="-9"
         inkscape:window-maximized="1"
         inkscape:current-layer="layer1" />
    <defs
         id="defs2" />
    <g
         inkscape:label="Layer 1"
         inkscape:groupmode="layer"
         id="layer1">
        <path
             style="fill:none;stroke-width:0.600945"
             id="path384"
             sodipodi:type="arc"
             sodipodi:cx="25"
             sodipodi:cy="25"
             sodipodi:rx="14.710432"
             sodipodi:ry="14.710432"
             sodipodi:start="0"
             sodipodi:end="6.2732788"
             sodipodi:arc-type="slice"
             d="m 39.710432,25 a 14.710432,14.710432 0 0 1 -14.674,14.710387 a 14.710432,14.710432 0 0 1 -14.746684,-14.637523 a 14.710432,14.710432 0 0 1 14.600956,-14.78289 a 14.710432,14.710432 0 0 1 14.819006,14.564299 l -14.70971,0.145727 z" />
        <path
             id="Heart"
             fill="#bd1864"
             d="m 24.121897,45.136632 c -0.47625,-1.13771 -0.89958,-2.30188 -1.40229,-3.43958 c -0.82021,-1.77271 -1.95792,-3.3073 -3.20146,-4.78896 c -1.5875,-1.87854 -3.41312,-3.46604 -5.371039,-4.92125 c -1.481667,-1.08479 -2.963333,-2.19604 -4.3656247,-3.38667 c -2.460625,-2.11667 -4.28625,-4.73604 -5.344583,-7.83167 c -0.264584,-0.76729 -0.396875,-1.56104 -0.502709,-2.38125 c -0.105833,-0.84666 -0.185208,-1.69333 -0.15875,-2.54 c 0.02646,-1.7727 0.3175,-3.51895 1.084792,-5.15937 c 0.926042,-1.95792 2.38125,-3.38667 4.233333,-4.41854 c 1.2435417,-0.68792 2.5929167,-1.11125 4.0216667,-1.29646 c 0.714375,-0.10583 1.42875,-0.18521 2.143124,-0.18521 c 2.27542,-0.0265 4.33917,0.66146 6.24417,1.87854 c 0.9525,0.60854 1.77271,1.37584 2.46062,2.27542 c 0.0794,0.0794 0.13229,0.2116701 0.13229,0.3439601 c 0,11.9327099 0,23.8918699 0,35.8245799 c 0,0.0265 0,0.0265 0,0.0529 c 0,0 0.0265,0 0.0265,-0.0265 z m 1.77271,-28.17813 c 0.0529,-0.0529 0.0794,-0.10583 0.13229,-0.15875 c 1.13771,-1.53458 2.54,-2.7252 4.31271,-3.4925 c 1.79917,-0.76729 3.59833,-0.87312 5.45042,-0.15875 c 1.05833,0.42334 1.93146,1.05834 2.46062,2.11667 c 0.55563,1.11125 0.635,2.27542 0.50271,3.46604 c -0.13229,1.56104 -0.71437,2.93688 -1.69333,4.1275 c -0.79375,1.00542 -1.69334,1.95792 -2.54,2.93688 c -1.24354,1.42875 -2.54,2.8575 -3.73063,4.31271 c -1.98437,2.46062 -3.38666,5.21229 -4.1275,8.30791 c -0.26458,1.11125 -0.50271,2.24896 -0.60854,3.38667 c -0.0529,0.55562 -0.10583,1.11125 -0.13229,1.64042 c -0.0265,0.58208 0,1.19062 0,1.7727 c 0.10583,-0.26458 0.18521,-0.55562 0.26458,-0.8202 c 0.87313,-2.51355 1.98438,-4.94771 3.54542,-7.1173 c 1.34937,-1.87854 2.91042,-3.54541 4.84187,-4.81541 c 0.87313,-0.58209 1.79917,-1.11125 2.69875,-1.69334 c 1.95792,-1.27 3.73063,-2.69875 5.2123,-4.52437 c 1.905,-2.35479 3.30729,-4.92125 3.59833,-7.99042 c 0.13229,-1.24354 0.21167,-2.48708 0.0794,-3.73062 c -0.13229,-1.29646 -0.44979,-2.56646 -1.00541,-3.75709 c -0.52917,-1.1641599 -1.21709,-2.2225 -2.14313,-3.09562 c -0.74083,-0.71438 -1.61396,-1.27 -2.56646,-1.71979 c -1.27,-0.60854 -2.59291,-0.97896 -3.9952,-1.11125 c -0.84667,-0.0794 -1.69334,-0.0794 -2.51355,0.0265 c -1.19062,0.13229 -2.32833,0.39687 -3.43958,0.84666 c -1.71979,0.71438 -3.175,1.74625 -4.445,3.12209 c -0.18521,0.2116601 -0.26458,0.4233301 -0.26458,0.6879101 c 0,2.3812499 0,4.7889599 0,7.1702099 c 0,0.0794 0,0.15875 0,0.23813 c 0.0529,0.0264 0.0794,0.0264 0.10583,0.0264 z"
             style="stroke-width:0.264583" />
    </g>
</svg>
