<?xml version="1.0" encoding="UTF-8" standalone="no"?>
<!-- Created with Inkscape (http://www.inkscape.org/) -->

<svg
     width="50mm"
     height="50mm"
     viewBox="0 0 50 50"
     version="1.1"
     id="svg5"
     sodipodi:docname="mind.svg"
     inkscape:version="1.1.2 (b8e25be833, 2022-02-05)"
     xmlns:inkscape="http://www.inkscape.org/namespaces/inkscape"
     xmlns:sodipodi="http://sodipodi.sourceforge.net/DTD/sodipodi-0.dtd"
     xmlns="http://www.w3.org/2000/svg"
     xmlns:svg="http://www.w3.org/2000/svg">
    <sodipodi:namedview
         id="namedview7"
         pagecolor="#ffffff"
         bordercolor="#111111"
         borderopacity="1"
         inkscape:pageshadow="0"
         inkscape:pageopacity="0"
         inkscape:pagecheckerboard="1"
         inkscape:document-units="mm"
         showgrid="false"
         inkscape:zoom="2.9718855"
         inkscape:cx="98.085878"
         inkscape:cy="97.076418"
         inkscape:window-width="1920"
         inkscape:window-height="1001"
         inkscape:window-x="-9"
         inkscape:window-y="-9"
         inkscape:window-maximized="1"
         inkscape:current-layer="layer1" />
    <defs
         id="defs2" />
    <g
         inkscape:label="Layer 1"
         inkscape:groupmode="layer"
         id="layer1">
        <path
             id="Mind"
             fill="#06ffc9"
             d="m 46.636958,26.107039 c 0.02646,2.83105 0.502708,6.77334 -2.963333,9.68375 c -0.635,0.52917 -1.613959,0.34396 -1.74625,0.10584 c -0.555625,-0.92604 0.502708,-3.86292 -0.661459,-5.79438 c -0.449791,-0.74083 -0.9525,-0.74083 -1.640416,-1.08479 c 0,0 0,0 0,0 c 0.370416,-1.29646 0.555625,-2.67229 0.555625,-4.07458 c 0,-7.35542 -5.238749,-13.49375 -12.170834,-14.89604 c 0,0 0,0 0,0 c 0,0 0,0 0,0 c 0,0 0,0 0,0 c -0.07937,-0.0265 -0.15875,-0.2645901 -0.15875,-0.5556301 c 0,-1.984369 3.51896,-0.952499 3.51896,-3.968749 c 0,-2.1166599 -3.545418,-3.8364599 -7.911042,-3.8364599 c -4.92125,0 -7.672917,2.59292 -8.916459,4.2862499 c 1.402292,-1.1906199 3.836459,-3.1220799 7.699376,-3.1220799 c 2.2225,0 4.048125,1.29646 4.048125,1.93146 c 0,1.5610399 -4.550833,1.5081199 -4.550833,4.1274999 c 0,0.634999 0.105833,1.1641691 0.238125,1.1641691 c 0,0 0,0 0,0 c -6.932085,1.40229 -12.1708348,7.54062 -12.1708348,14.89604 c 0,1.905 0.3439588,3.75708 1.0054168,5.45041 c 0,0 0,0 0,0 c 0,0.37042 -0.343958,0.66146 -0.767292,0.66146 c -1.296458,0 -1.984375,-2.16958 -4.445,-2.16958 c -1.031875,0 -1.852083,1.08479 -1.852083,2.43416 c 0,7.22313 5.794375,12.27667 10.00125,12.27667 c -3.624792,-1.37583 -6.932083,-3.54542 -6.932083,-7.96396 c 0,-0.82021 0.211666,-1.50812 0.47625,-1.50812 c 1.058333,0 2.831041,2.77812 5.08,2.77812 c 0.873125,0 1.5875,-0.42333 2.2225,-0.87312 c 0,0 0,0 0,0 c 2.725208,2.54 6.376459,4.10104 10.371667,4.10104 c 4.788958,0 9.075208,-2.2225 11.853333,-5.68854 c 0,0 0,0.0265 0,0.0265 c 0.3175,-0.18521 0.635,0.15875 0.846667,0.5027 c 0.661457,1.11125 -1.243542,3.33375 0.02646,5.45042 c 0.529167,0.87313 2.566458,0.79375 3.730624,0.10583 c 6.19125,-3.73062 7.090834,-11.2977 5.212292,-14.44625 z"
             style="stroke-width:0.264583" />
        <path
             style="fill:none;stroke-width:0.600945"
             id="path384"
             sodipodi:type="arc"
             sodipodi:cx="25"
             sodipodi:cy="25"
             sodipodi:rx="14.710432"
             sodipodi:ry="14.710432"
             sodipodi:start="0"
             sodipodi:end="6.2732788"
             sodipodi:arc-type="slice"
             d="m 39.710432,25 a 14.710432,14.710432 0 0 1 -14.674,14.710387 a 14.710432,14.710432 0 0 1 -14.746684,-14.637523 a 14.710432,14.710432 0 0 1 14.600956,-14.78289 a 14.710432,14.710432 0 0 1 14.819006,14.564299 l -14.70971,0.145727 z" />
    </g>
</svg>
