<?xml version="1.0" encoding="UTF-8" standalone="no"?>
<!-- Created with Inkscape (http://www.inkscape.org/) -->

<svg
     width="100mm"
     height="100mm"
     viewBox="0 0 100 100"
     version="1.1"
     id="svg5"
     sodipodi:docname="prince.svg"
     inkscape:version="1.1.2 (b8e25be833, 2022-02-05)"
     xmlns:inkscape="http://www.inkscape.org/namespaces/inkscape"
     xmlns:sodipodi="http://sodipodi.sourceforge.net/DTD/sodipodi-0.dtd"
     xmlns="http://www.w3.org/2000/svg"
     xmlns:svg="http://www.w3.org/2000/svg">
    <sodipodi:namedview
         id="namedview7"
         pagecolor="#ffffff"
         bordercolor="#111111"
         borderopacity="1"
         inkscape:pageshadow="0"
         inkscape:pageopacity="0"
         inkscape:pagecheckerboard="1"
         inkscape:document-units="mm"
         showgrid="false"
         inkscape:zoom="1.4859428"
         inkscape:cx="204.24744"
         inkscape:cy="176.65553"
         inkscape:window-width="1920"
         inkscape:window-height="1001"
         inkscape:window-x="-9"
         inkscape:window-y="-9"
         inkscape:window-maximized="1"
         inkscape:current-layer="layer1" />
    <defs
         id="defs2" />
    <g
         inkscape:label="Layer 1"
         inkscape:groupmode="layer"
         id="layer1">
        <path
             style="fill:none;stroke-width:0.600945"
             id="path384"
             sodipodi:type="arc"
             sodipodi:cx="25"
             sodipodi:cy="25"
             sodipodi:rx="14.710432"
             sodipodi:ry="14.710432"
             sodipodi:start="0"
             sodipodi:end="6.2732788"
             sodipodi:arc-type="slice"
             d="m 39.710432,25 a 14.710432,14.710432 0 0 1 -14.674,14.710387 a 14.710432,14.710432 0 0 1 -14.746684,-14.637523 a 14.710432,14.710432 0 0 1 14.600956,-14.78289 a 14.710432,14.710432 0 0 1 14.819006,14.564299 l -14.70971,0.145727 z" />
        <path
             id="path31194-3"
             style="fill:#000000;stroke:none;stroke-width:0.253328;stroke-opacity:1"
             d="m 50.00003,22.5 c 0,0 -2.20194,4.07996 -4.16667,5.00022 c -6.28879,2.94559 -20.83336,0 -20.83336,0 v 22.49991 c -10e-6,13.80714 11.19289,25.00004 25.00003,25.00003 c 13.80714,1e-5 25.00003,-11.19289 25.00002,-25.00003 v -22.49991 c 0,0 -14.54456,2.94559 -20.83335,0 c -1.96473,-0.92026 -4.16667,-5.00022 -4.16667,-5.00022 z"
             sodipodi:nodetypes="cscccccsc" />
    </g>
</svg>
