<?xml version="1.0" encoding="UTF-8" standalone="no"?>
<!-- Created with Inkscape (http://www.inkscape.org/) -->

<svg
     width="50mm"
     height="50mm"
     viewBox="0 0 50 50"
     version="1.1"
     id="svg5"
     sodipodi:docname="hope.svg"
     inkscape:version="1.1.2 (b8e25be833, 2022-02-05)"
     xmlns:inkscape="http://www.inkscape.org/namespaces/inkscape"
     xmlns:sodipodi="http://sodipodi.sourceforge.net/DTD/sodipodi-0.dtd"
     xmlns="http://www.w3.org/2000/svg"
     xmlns:svg="http://www.w3.org/2000/svg">
    <sodipodi:namedview
         id="namedview7"
         pagecolor="#ffffff"
         bordercolor="#111111"
         borderopacity="1"
         inkscape:pageshadow="0"
         inkscape:pageopacity="0"
         inkscape:pagecheckerboard="1"
         inkscape:document-units="mm"
         showgrid="false"
         inkscape:zoom="2.9718855"
         inkscape:cx="98.085878"
         inkscape:cy="97.076418"
         inkscape:window-width="1920"
         inkscape:window-height="1001"
         inkscape:window-x="-9"
         inkscape:window-y="-9"
         inkscape:window-maximized="1"
         inkscape:current-layer="layer1" />
    <defs
         id="defs2" />
    <g
         inkscape:label="Layer 1"
         inkscape:groupmode="layer"
         id="layer1">
        <path
             style="fill:none;stroke-width:0.600945"
             id="path384"
             sodipodi:type="arc"
             sodipodi:cx="25"
             sodipodi:cy="25"
             sodipodi:rx="14.710432"
             sodipodi:ry="14.710432"
             sodipodi:start="0"
             sodipodi:end="6.2732788"
             sodipodi:arc-type="slice"
             d="m 39.710432,25 a 14.710432,14.710432 0 0 1 -14.674,14.710387 a 14.710432,14.710432 0 0 1 -14.746684,-14.637523 a 14.710432,14.710432 0 0 1 14.600956,-14.78289 a 14.710432,14.710432 0 0 1 14.819006,14.564299 l -14.70971,0.145727 z" />
        <path
             fill="#fdfdfd"
             d="m 0.1291685,17.335383 c 0.291042,0.42333 0.343959,0.60854 0.661459,1.00541 c 1.402291,1.77271 3.069166,2.30188 5.23875,1.79917 c 0.79375,-0.18521 1.561041,-0.47625 2.328333,-0.74083 c 1.084792,-0.34396 2.1695825,-0.60854 3.3072905,-0.44979 c 1.24354,0.1852 2.14313,0.84666 2.51354,2.03729 c 0.29104,0.89958 0.52917,1.85208 0.66146,2.80458 c 0.42333,3.09563 2.19604,5.02708 4.94771,6.27063 c 0.21167,0.10583 0.50271,0.21166 0.74083,0.29104 c 0.34396,0.13229 0.58209,0.18521 0.9525,0.26458 c -0.60854,0.0794 -1.32291,0.15875 -1.87854,0.13229 c -1.50812,-0.0529 -2.69875,-0.18521 -4.23333,-1.11125 c -1.53459,-0.82021 -2.46063,-2.11666 -2.91042,-3.81 c -0.23812,-0.87312 -0.44979,-1.74625 -0.71437,-2.59291 c -0.10584,-0.34396 -0.317504,-0.68792 -0.529171,-1.00542 c -0.449792,-0.66146 -1.084792,-0.97896 -1.9049995,-0.97896 c -0.820208,0 -1.613958,0.23813 -2.407708,0.39688 c -0.714375,0.13229 -1.455209,0.29104 -2.196042,0.29104 c -2.301875,0.0265 -3.757083,-0.71438 -4.28625,-2.96334 c -0.132292,-0.37041 -0.211667,-0.97895 -0.291042,-1.64041 z m 14.7108325,20.39937 c 1.98438,-1.03187 9.8425,-5.31812 9.8425,-5.31812 v -4.86834 c 0,0 -0.68792,-0.635 -0.87312,-0.8202 c -1.98438,-1.77271 -3.06917,-3.86292 -3.43959,-6.56167 c -0.18521,-1.45521 -0.55562,-2.88396 -1.16416,-4.23333 c -0.68792,-1.56105 -1.74625,-2.75167 -3.36021,-3.33375 c -1.29646,-0.47625 -2.61938,-0.39688 -3.94229,-0.0529 c -1.613963,0.44979 -3.0427125,1.27 -4.4185455,2.16958 c -0.767292,0.50271 -1.508125,0.97896 -2.38125,1.27 c -0.529167,0.18521 -1.058333,0.23813 -1.613958,0.10584 c -1.031875,-0.23813 -1.455209,-1.50813 -0.820209,-2.32834 c 0.47625,-0.635 1.561042,-0.68791 2.2225,-0.10583 c 0.02646,0.0265 0.07937,0.0794 0.105834,0.10583 c 0.02646,0.0265 0.07938,0.0529 0.15875,0.13229 c -0.185209,-0.66145 -0.47625,-1.1377 -1.058334,-1.40229 c -1.005416,-0.44979 -2.804583,-0.18521 -3.439583,1.29646 c -0.899583,2.11667 0.343958,4.445 2.619375,4.81542 c 1.243542,0.21166 2.460625,0.0265 3.65125,-0.29104 c 1.190625,-0.3175 2.38125,-0.71438 3.6247915,-0.87313 c 2.196039,-0.29104 3.836459,0.60854 4.550829,2.59292 c 0.3175,0.89958 0.52917,1.85208 0.71438,2.80458 c 0.21167,1.08479 0.44979,2.16958 0.9525,3.14854 c 0.79375,1.53459 2.09021,2.56646 3.57187,3.36021 c 0.92605,0.47625 1.905,0.74083 2.8575,1.19063 c -2.91041,2.56645 -5.34458,4.65666 -8.36083,7.19666 z m -7.4877075,-10.76854 c 0.370417,0.34396 0.449792,0.74083 0.238125,1.05833 c -0.185208,0.29105 -0.687916,0.39688 -1.11125,0.23813 c -0.529166,-0.21167 -0.846666,-0.68792 -0.820208,-1.32292 c 0,-0.60854 0.343958,-1.11125 0.899583,-1.29646 c 0.767292,-0.26458 1.508125,-0.0529 2.010834,0.58209 c 0.238125,0.29104 0.423333,0.66146 0.582083,1.00541 c 0.211667,0.42334 0.370417,0.89959 0.5556249,1.32292 c 0.6085416,1.40229 1.3758326,2.69875 2.6458356,3.62479 c 1.74625,1.29646 3.4925,1.82563 5.63562,1.77271 c 0.0529,0 0.37042,0 0.37042,0 c 0,0 0.23812,-0.21167 0.29104,-0.26458 c 0.79375,-0.68792 2.48708,-2.24896 2.56646,-2.27542 c -0.47625,0.0794 -1.05833,0.13229 -1.50813,0.15875 c -1.50812,0.10583 -2.93687,0.0794 -4.39208,-0.37042 c -1.95792,-0.60854 -3.36021,-1.79916 -4.074583,-3.75708 c -0.132291,-0.37042 -0.291041,-0.71437 -0.449791,-1.05833 c -0.502709,-0.97896 -1.0318746,-1.93146 -2.1166665,-2.38125 c -1.058333,-0.44979 -2.116667,-0.50271 -3.148542,0 c -1.27,0.635 -1.799166,1.87854 -1.534583,3.28083 c 0.291042,1.45521 1.561042,2.40771 2.936875,2.16958 c 0.608542,-0.10583 1.11125,-0.39687 1.349375,-1.00541 c 0.291042,-0.79375 -0.185208,-1.53459 -1.005417,-1.56104 c 0.02646,0.0264 0.05292,0.0529 0.07937,0.0794 z m 42.5185375,-9.63083 c -0.29104,0.42333 -0.34395,0.60854 -0.66145,1.00541 c -1.4023,1.77271 -3.06917,2.30188 -5.23875,1.79917 c -0.79375,-0.18521 -1.56105,-0.47625 -2.32834,-0.74083 c -1.08479,-0.34396 -2.16958,-0.60854 -3.30729,-0.44979 c -1.24354,0.1852 -2.14312,0.84666 -2.51354,2.03729 c -0.29104,0.89958 -0.52917,1.85208 -0.66146,2.80458 c -0.42333,3.09563 -2.19604,5.02708 -4.94771,6.27063 c -0.21166,0.10583 -0.50271,0.21166 -0.74083,0.29104 c -0.34396,0.13229 -0.58208,0.18521 -0.9525,0.26458 c 0.60854,0.0794 1.32292,0.15875 1.87854,0.13229 c 1.50813,-0.0529 2.69875,-0.18521 4.23333,-1.11125 c 1.53459,-0.82021 2.46063,-2.11666 2.910421,-3.81 c 0.238129,-0.87312 0.449789,-1.74625 0.714379,-2.59291 c 0.10583,-0.34396 0.3175,-0.68792 0.52916,-1.00542 c 0.44979,-0.66146 1.08479,-0.97896 1.905,-0.97896 c 0.820211,0 1.61396,0.23813 2.40771,0.39688 c 0.71438,0.13229 1.45521,0.29104 2.196041,0.29104 c 2.301879,0.0265 3.75709,-0.71438 4.286249,-2.96334 c 0.10584,-0.37041 0.21167,-0.97895 0.29104,-1.64041 z m -23.15104,13.22916 c 0.9525,-0.44979 1.93146,-0.71437 2.8575,-1.19062 c 1.48167,-0.79375 2.75167,-1.82563 3.57188,-3.36021 c 0.52916,-0.97896 0.74083,-2.06375 0.9525,-3.14854 c 0.18521,-0.9525 0.39687,-1.905 0.71437,-2.80458 c 0.71438,-1.98438 2.38125,-2.88396 4.55084,-2.59292 c 1.24354,0.15875 2.43416,0.55562 3.62479,0.87312 c 1.19062,0.3175 2.40771,0.50271 3.65125,0.29105 c 2.27541,-0.37042 3.51896,-2.69875 2.61937,-4.81542 c -0.635,-1.48167 -2.43416,-1.74625 -3.43958,-1.29646 c -0.58208,0.26458 -0.87313,0.74083 -1.05833,1.40229 c 0.0794,-0.0529 0.13229,-0.10583 0.15875,-0.13229 c 0.0265,-0.0265 0.0794,-0.0794 0.10583,-0.10583 c 0.66146,-0.58209 1.74625,-0.55563 2.2225,0.10583 c 0.635,0.84667 0.211671,2.09021 -0.820209,2.32833 c -0.555621,0.1323 -1.084791,0.0529 -1.613961,-0.10583 c -0.87312,-0.29104 -1.613959,-0.79375 -2.381249,-1.27 c -1.375831,-0.89958 -2.804581,-1.71979 -4.418541,-2.16958 c -1.32292,-0.37042 -2.64583,-0.42334 -3.94229,0.0529 c -1.61396,0.58209 -2.67229,1.77271 -3.36021,3.33375 c -0.60854,1.34938 -0.9525,2.77813 -1.16417,4.23334 c -0.34395,2.69875 -1.4552,4.78896 -3.43958,6.56166 c -0.18521,0.15875 -0.87312,0.82021 -0.87312,0.82021 v 4.84188 c 0,0 7.85812,4.25979 9.8425,5.31812 c -2.93688,-2.56646 -5.37105,-4.63021 -8.36084,-7.17021 z m 16.00729,-3.70416 c -0.8202,0 -1.32291,0.76729 -1.00541,1.56104 c 0.23812,0.60854 0.71437,0.89958 1.34937,1.00542 c 1.40229,0.23812 2.67229,-0.71438 2.93688,-2.16959 c 0.26458,-1.40229 -0.26459,-2.64583 -1.53459,-3.28083 c -1.00541,-0.50271 -2.0902,-0.42333 -3.14854,0 c -1.08479,0.44979 -1.64041,1.40229 -2.11666,2.38125 c -0.18521,0.34396 -0.3175,0.71437 -0.4498,1.05833 c -0.71437,1.95792 -2.0902,3.14854 -4.07458,3.75709 c -1.45521,0.44979 -2.88396,0.47625 -4.39208,0.37041 c -0.44979,-0.0265 -1.03188,-0.10583 -1.50813,-0.15875 c 0.0794,0.0265 1.77271,1.5875 2.56646,2.27542 c 0.0529,0.0265 0.29104,0.26458 0.29104,0.26458 c 0,0 0.3175,0 0.37042,0 c 2.14312,0.0529 3.88937,-0.47625 5.63562,-1.77271 c 1.24355,-0.92604 2.0373,-2.2225 2.64584,-3.62479 c 0.18521,-0.44979 0.34396,-0.89958 0.55562,-1.32291 c 0.15875,-0.34396 0.34396,-0.68792 0.58209,-1.00542 c 0.5027,-0.635 1.27,-0.82021 2.01083,-0.58208 c 0.55562,0.1852 0.89958,0.68791 0.89958,1.29645 c 0,0.635 -0.29104,1.11125 -0.82021,1.32292 c -0.42333,0.15875 -0.92604,0.0794 -1.11125,-0.23812 c -0.21166,-0.3175 -0.10583,-0.71438 0.23813,-1.05834 c 0.0265,0 0.0529,-0.0265 0.0794,-0.0794 z"
             id="path2"
             style="stroke-width:2;stroke:#ffde55;stroke-opacity:1;stroke-miterlimit:4;stroke-dasharray:none;paint-order:markers stroke fill;stroke-linejoin:round" />
    </g>
</svg>
