<?xml version="1.0" encoding="UTF-8" standalone="no"?>
<!-- Created with Inkscape (http://www.inkscape.org/) -->

<svg
     width="50mm"
     height="50mm"
     viewBox="0 0 50 50"
     version="1.1"
     id="svg5"
     sodipodi:docname="life.svg"
     inkscape:version="1.1.2 (b8e25be833, 2022-02-05)"
     xmlns:inkscape="http://www.inkscape.org/namespaces/inkscape"
     xmlns:sodipodi="http://sodipodi.sourceforge.net/DTD/sodipodi-0.dtd"
     xmlns="http://www.w3.org/2000/svg"
     xmlns:svg="http://www.w3.org/2000/svg">
    <sodipodi:namedview
         id="namedview7"
         pagecolor="#ffffff"
         bordercolor="#111111"
         borderopacity="1"
         inkscape:pageshadow="0"
         inkscape:pageopacity="0"
         inkscape:pagecheckerboard="1"
         inkscape:document-units="mm"
         showgrid="false"
         inkscape:zoom="2.9718855"
         inkscape:cx="98.085878"
         inkscape:cy="97.076418"
         inkscape:window-width="1920"
         inkscape:window-height="1001"
         inkscape:window-x="-9"
         inkscape:window-y="-9"
         inkscape:window-maximized="1"
         inkscape:current-layer="layer1" />
    <defs
         id="defs2" />
    <g
         inkscape:label="Layer 1"
         inkscape:groupmode="layer"
         id="layer1">
        <path
             style="fill:none;stroke-width:0.600945"
             id="path384"
             sodipodi:type="arc"
             sodipodi:cx="25"
             sodipodi:cy="25"
             sodipodi:rx="14.710432"
             sodipodi:ry="14.710432"
             sodipodi:start="0"
             sodipodi:end="6.2732788"
             sodipodi:arc-type="slice"
             d="m 39.710432,25 a 14.710432,14.710432 0 0 1 -14.674,14.710387 a 14.710432,14.710432 0 0 1 -14.746684,-14.637523 a 14.710432,14.710432 0 0 1 14.600956,-14.78289 a 14.710432,14.710432 0 0 1 14.819006,14.564299 l -14.70971,0.145727 z" />
        <path
             id="Life"
             fill="#76c34e"
             d="m 18.137307,41.52323 v 5.23875 h 14.12875 c 0,0 1.71979,-1.61396 3.41313,-4.28625 c 1.69333,-2.67229 3.36021,-6.37646 3.20146,-10.55688 c -0.10584,-2.8575 -1.21709,-5.92666 -3.65125,-9.07521 c -1.7198,-2.2225 -4.07459,-4.49791 -7.19667,-6.79979 c -6.61458,-4.84187 -4.31271,-9.5249999 -1.00542,-9.6043699 c 1.05834,-0.0265 2.96334,0.60854 3.01625,2.3018697 c 0,0.29104 0.0529,2.3283402 -3.30729,3.5454202 c 0,0 5.79438,-0.21167 5.68854,-4.2333299 c -0.0265,-1.48167 -0.89958,-4.81542 -6.0325,-4.81542 c -4.1275,0 -7.88458,3.01625 -7.91104,7.5141699 c -0.0265,3.12208 3.36021,7.56708 7.43479,11.48291 c 0.58209,0.55563 6.42938,6.13834 1.48167,14.73729 c 0,0.0265 -2.2225,3.91584 -9.26042,4.55084 z m 0,-1.93146 v -4.89479 c 0,0 1.16417,-0.18521 1.95792,-0.79375 c 0.55562,-0.44979 0.89958,-1.11125 0.44979,-2.14313 c -0.10583,-0.26458 -0.47625,-0.74083 -1.13771,-0.97896 c -0.37041,-0.13229 -0.82021,-0.1852 -1.37583,-0.0794 c -2.51354,0.52917 -9.1545791,3.33375 -11.6152083,-1.61396 c -0.26458,-0.52917 -3.33375,-7.35542 7.5141683,-11.53583 c 0,0 -4.7095894,2.40771 -4.7360394,5.84729 c -0.0265,4.15396 3.2808294,3.99521 7.0908294,2.88396 c 1.64042,-0.47625 7.69937,-1.69334 9.39271,4.18041 c 0,0.0265 2.27541,8.04334 -7.54063,9.12813 z"
             style="fill:#72eb34;fill-opacity:1;stroke-width:0.264583" />
    </g>
</svg>
