<?xml version="1.0" encoding="UTF-8" standalone="no"?>
<!-- Created with Inkscape (http://www.inkscape.org/) -->

<svg
     width="50mm"
     height="50mm"
     viewBox="0 0 50 50"
     version="1.1"
     id="svg5"
     sodipodi:docname="rage.svg"
     inkscape:version="1.1.2 (b8e25be833, 2022-02-05)"
     xmlns:inkscape="http://www.inkscape.org/namespaces/inkscape"
     xmlns:sodipodi="http://sodipodi.sourceforge.net/DTD/sodipodi-0.dtd"
     xmlns="http://www.w3.org/2000/svg"
     xmlns:svg="http://www.w3.org/2000/svg">
    <sodipodi:namedview
         id="namedview7"
         pagecolor="#ffffff"
         bordercolor="#111111"
         borderopacity="1"
         inkscape:pageshadow="0"
         inkscape:pageopacity="0"
         inkscape:pagecheckerboard="1"
         inkscape:document-units="mm"
         showgrid="false"
         inkscape:zoom="2.9718855"
         inkscape:cx="98.085878"
         inkscape:cy="97.076418"
         inkscape:window-width="1920"
         inkscape:window-height="1001"
         inkscape:window-x="-9"
         inkscape:window-y="-9"
         inkscape:window-maximized="1"
         inkscape:current-layer="layer1" />
    <defs
         id="defs2" />
    <g
         inkscape:label="Layer 1"
         inkscape:groupmode="layer"
         id="layer1">
        <path
             style="fill:none;stroke-width:0.600945"
             id="path384"
             sodipodi:type="arc"
             sodipodi:cx="25"
             sodipodi:cy="25"
             sodipodi:rx="14.710432"
             sodipodi:ry="14.710432"
             sodipodi:start="0"
             sodipodi:end="6.2732788"
             sodipodi:arc-type="slice"
             d="m 39.710432,25 a 14.710432,14.710432 0 0 1 -14.674,14.710387 a 14.710432,14.710432 0 0 1 -14.746684,-14.637523 a 14.710432,14.710432 0 0 1 14.600956,-14.78289 a 14.710432,14.710432 0 0 1 14.819006,14.564299 l -14.70971,0.145727 z" />
        <path
             id="Rage"
             fill="#9c4dad"
             d="m 5.897082,7.5507334 l 2.566456,8.9693706 c 0,0 2.91042,-0.10583 5.97959,0.82021 c 2.83104,0.87312 5.82083,2.59292 6.82625,6.11187 c 0,0 1.74624,4.65667 -1.905,4.68313 c -0.97896,0 -2.59292,-0.82021 -2.59292,-2.09021 c 0,-0.55562 0.39687,-0.87312 1.11125,-0.92604 c 0.60854,-0.0265 1.21708,0.39687 2.19604,1.37583 c 0,0 -0.39687,-2.24896 -2.56646,-2.24896 c -0.66146,0 -1.85208,0.18521 -1.85208,1.4023 c 0,1.08479 0.34396,3.75708 4.07458,3.75708 c 1.71979,0 3.88938,-0.60854 3.88938,-6.45583 c -0.0529,-1.48167 0.13229,-13.3879207 -17.727086,-15.3987506 z m 35.798126,12.0914506 c -1.77271,0 -3.01625,1.00542 -3.01625,1.95792 c 0,1.37583 1.45521,1.905 1.50812,1.93146 c -0.58208,-0.52917 -0.635,-1.40229 -0.635,-1.61396 c 0,-0.635 0.82021,-1.19062 1.40229,-1.16417 c 1.19063,0.0529 2.75167,1.21709 2.72521,2.8575 c -0.0794,3.09563 -1.13771,5.02709 -2.69875,6.77334 c -1.50812,1.66687 -4.47146,2.91041 -6.32354,2.91041 c -3.36021,0 -5.60917,-3.59833 -9.68375,-3.62479 c 0,0 0,0 0,0 c -4.07458,0.0265 -6.35,3.62479 -9.68375,3.62479 c -1.85208,0 -4.81541,-1.24354 -6.32354,-2.91041 c -1.5875,-1.74625 -2.645833,-3.65125 -2.69875,-6.77334 c -0.02646,-1.66687 1.53458,-2.83104 2.72521,-2.8575 c 0.58208,-0.0264 1.40229,0.52917 1.40229,1.16417 c 0,0.18521 -0.0265,1.08479 -0.635,1.61396 c 0.0529,-0.0265 1.50813,-0.55563 1.50813,-1.93146 c 0,-0.9525 -1.27,-1.95792 -3.01625,-1.95792 c -2.30188,0 -5.529796,1.69334 -5.529796,7.4348 c 0,3.22791 2.06375,9.2075 8.995836,11.9327 c 2.69875,1.05834 5.97958,1.82563 5.87375,5.55625 l 7.40833,-0.0264 v 0 l 7.40833,0.0264 c -0.10583,-3.73062 3.175,-4.47145 5.87375,-5.55625 c 6.93209,-2.75166 8.99584,-8.70479 8.99584,-11.9327 c -0.0529,-5.74146 -3.28084,-7.4348 -5.58271,-7.4348 z m -16.74813,16.9598 c 0,0 0,0 0,0 c -0.0794,0 -3.96875,-0.15875 -7.99041,1.5875 c 0,0 2.64583,-5.23875 7.99041,-5.23875 c 0,0 0,0 0,0 c 5.31813,0 7.99042,5.23875 7.99042,5.23875 c -4.02167,-1.7198 -7.91104,-1.5875 -7.99042,-1.5875 z m 1.37584,-13.62605 c 0,5.8473 2.16958,6.45584 3.88937,6.45584 c 3.73063,0 4.07458,-2.64584 4.07458,-3.75709 c 0,-1.21708 -1.19062,-1.40229 -1.85208,-1.40229 c -2.16958,0 -2.56646,2.24896 -2.56646,2.24896 c 0.9525,-0.97896 1.5875,-1.40229 2.19604,-1.37583 c 0.74084,0.0265 1.11125,0.37041 1.11125,0.92604 c 0,1.27 -1.61395,2.09021 -2.59291,2.09021 c -3.65125,-0.0265 -1.905,-4.68313 -1.905,-4.68313 c 1.03187,-3.62479 4.18041,-5.37104 7.09083,-6.19125 c 2.96333,-0.84666 5.715,-0.74083 5.715,-0.74083 l 2.56646,-8.9693806 c -17.91229,1.9843799 -17.72708,13.8906306 -17.72708,15.3987506 z"
             style="stroke-width:0.264583" />
    </g>
</svg>
