<?xml version="1.0" encoding="UTF-8" standalone="no"?>
<!-- Created with Inkscape (http://www.inkscape.org/) -->

<svg
     width="50mm"
     height="50mm"
     viewBox="0 0 50 50"
     version="1.1"
     id="svg5"
     sodipodi:docname="void.svg"
     inkscape:version="1.1.2 (b8e25be833, 2022-02-05)"
     xmlns:inkscape="http://www.inkscape.org/namespaces/inkscape"
     xmlns:sodipodi="http://sodipodi.sourceforge.net/DTD/sodipodi-0.dtd"
     xmlns="http://www.w3.org/2000/svg"
     xmlns:svg="http://www.w3.org/2000/svg">
    <sodipodi:namedview
         id="namedview7"
         pagecolor="#ffffff"
         bordercolor="#111111"
         borderopacity="1"
         inkscape:pageshadow="0"
         inkscape:pageopacity="0"
         inkscape:pagecheckerboard="1"
         inkscape:document-units="mm"
         showgrid="false"
         inkscape:zoom="2.9718855"
         inkscape:cx="98.085878"
         inkscape:cy="97.076418"
         inkscape:window-width="1920"
         inkscape:window-height="1001"
         inkscape:window-x="-9"
         inkscape:window-y="-9"
         inkscape:window-maximized="1"
         inkscape:current-layer="layer1" />
    <defs
         id="defs2" />
    <g
         inkscape:label="Layer 1"
         inkscape:groupmode="layer"
         id="layer1">
        <path
             style="fill:none;stroke-width:0.600945"
             id="path384"
             sodipodi:type="arc"
             sodipodi:cx="25"
             sodipodi:cy="25"
             sodipodi:rx="14.710432"
             sodipodi:ry="14.710432"
             sodipodi:start="0"
             sodipodi:end="6.2732788"
             sodipodi:arc-type="slice"
             d="m 39.710432,25 a 14.710432,14.710432 0 0 1 -14.674,14.710387 a 14.710432,14.710432 0 0 1 -14.746684,-14.637523 a 14.710432,14.710432 0 0 1 14.600956,-14.78289 a 14.710432,14.710432 0 0 1 14.819006,14.564299 l -14.70971,0.145727 z" />
        <path
             id="Void_4_"
             fill="#00134b"
             d="m 16.878033,33.531258 c -9.4191666,5.60917 -16.08666576,0.21167 -15.5045828,-8.22854 c 3.01625,6.6675 7.7522912,8.5725 15.5045828,8.22854 z m -3.439583,11.77396 c 6.958541,4.84188 15.001871,1.87854 15.028331,-9.07521 c -3.67771,6.82625 -7.75229,9.92188 -15.028331,9.07521 z m 25.003121,-0.0794 c 7.35542,-4.20688 8.12271,-12.75292 -1.7727,-17.4625 c 4.60374,6.24416 5.63562,11.24479 1.7727,17.4625 z m 10.21292,-20.71688 c 0.26458,-8.46666 -6.58813,-13.59958 -15.79562,-7.64646 c 7.72583,-0.635 12.54124,1.0848 15.79562,7.64646 z m -35.480625,-19.9230903 c -7.6729158,3.59833 -9.1281248,12.0385403 0.343959,17.5418703 c -4.0745836,-6.61458 -4.7095836,-11.66812 -0.343959,-17.5418703 z m 23.442085,0.0265 c -7.01146,-4.76249998 -15.02833,-1.66688 -14.89604,9.2868703 c 3.57187,-6.8791703 7.59354,-10.0277103 14.89604,-9.2868703 z"
             style="stroke-width:0.264583" />
    </g>
</svg>
